<svg width="159" height="155" viewBox="0 0 159 155" fill="none" xmlns="http://www.w3.org/2000/svg">
<circle cx="75" cy="80" r="75" fill="#FFD12E"/>
<g filter="url(#filter0_i_2_242)">
<circle cx="75" cy="80" r="60" fill="#ECB800"/>
</g>
<g filter="url(#filter1_i_2_242)">
<path fill-rule="evenodd" clip-rule="evenodd" d="M75 155C116.421 155 150 121.421 150 80C150 38.5786 116.421 5 75 5C33.5786 5 0 38.5786 0 80C0 121.421 33.5786 155 75 155ZM135 80C135 113.137 108.137 140 75 140C41.8629 140 15 113.137 15 80C15 46.8629 41.8629 20 75 20C108.137 20 135 46.8629 135 80Z" fill="#FFD12E"/>
</g>
<g filter="url(#filter2_di_2_242)">
<path d="M101 46V56H84.9773C87.7447 59.4107 89.6971 63.5095 90.5379 68H101V78H90.5379C88.58 88.4566 80.5946 96.7896 70.3259 99.2549L90.4264 119.355L83.3553 126.426L51 94.0711V90H55.9289L55.8884 89.9595C59.4114 89.9864 63.6025 90 64 90C71.6487 90 78.1177 84.9487 80.2528 78H51V68H80.2528C78.1177 61.0513 71.6487 56 64 56C62.6959 56 62 56 62 56H51V46H101Z" fill="#FFD12E"/>
</g>
<path d="M21 0L23.0789 20.7231L42 23L23.0789 25.2769L21 46L18.9211 25.2769L0 23L18.9211 20.7231L21 0Z" fill="#FFF9C4"/>
<path d="M13 28L13.792 36.109L21 37L13.792 37.891L13 46L12.208 37.891L5 37L12.208 36.109L13 28Z" fill="#FFF9C4"/>
<path d="M147 100L148.273 111.621L159 113L148.273 114.379L147 126L145.727 114.379L135 113L145.727 111.621L147 100Z" fill="#FFF9C4"/>
<defs>
<filter id="filter0_i_2_242" x="15" y="20" width="120" height="120" filterUnits="userSpaceOnUse" color-interpolation-filters="sRGB">
<feFlood flood-opacity="0" result="BackgroundImageFix"/>
<feBlend mode="normal" in="SourceGraphic" in2="BackgroundImageFix" result="shape"/>
<feColorMatrix in="SourceAlpha" type="matrix" values="0 0 0 0 0 0 0 0 0 0 0 0 0 0 0 0 0 0 127 0" result="hardAlpha"/>
<feOffset dx="4" dy="4"/>
<feComposite in2="hardAlpha" operator="arithmetic" k2="-1" k3="1"/>
<feColorMatrix type="matrix" values="0 0 0 0 0 0 0 0 0 0 0 0 0 0 0 0 0 0 0.25 0"/>
<feBlend mode="normal" in2="shape" result="effect1_innerShadow_2_242"/>
</filter>
<filter id="filter1_i_2_242" x="0" y="5" width="150" height="150" filterUnits="userSpaceOnUse" color-interpolation-filters="sRGB">
<feFlood flood-opacity="0" result="BackgroundImageFix"/>
<feBlend mode="normal" in="SourceGraphic" in2="BackgroundImageFix" result="shape"/>
<feColorMatrix in="SourceAlpha" type="matrix" values="0 0 0 0 0 0 0 0 0 0 0 0 0 0 0 0 0 0 127 0" result="hardAlpha"/>
<feOffset dx="2" dy="2"/>
<feComposite in2="hardAlpha" operator="arithmetic" k2="-1" k3="1"/>
<feColorMatrix type="matrix" values="0 0 0 0 1 0 0 0 0 0.931667 0 0 0 0 0.316667 0 0 0 1 0"/>
<feBlend mode="normal" in2="shape" result="effect1_innerShadow_2_242"/>
</filter>
<filter id="filter2_di_2_242" x="51" y="46" width="54" height="84.4264" filterUnits="userSpaceOnUse" color-interpolation-filters="sRGB">
<feFlood flood-opacity="0" result="BackgroundImageFix"/>
<feColorMatrix in="SourceAlpha" type="matrix" values="0 0 0 0 0 0 0 0 0 0 0 0 0 0 0 0 0 0 127 0" result="hardAlpha"/>
<feOffset dx="4" dy="4"/>
<feComposite in2="hardAlpha" operator="out"/>
<feColorMatrix type="matrix" values="0 0 0 0 0 0 0 0 0 0 0 0 0 0 0 0 0 0 0.25 0"/>
<feBlend mode="normal" in2="BackgroundImageFix" result="effect1_dropShadow_2_242"/>
<feBlend mode="normal" in="SourceGraphic" in2="effect1_dropShadow_2_242" result="shape"/>
<feColorMatrix in="SourceAlpha" type="matrix" values="0 0 0 0 0 0 0 0 0 0 0 0 0 0 0 0 0 0 127 0" result="hardAlpha"/>
<feOffset dx="2" dy="2"/>
<feComposite in2="hardAlpha" operator="arithmetic" k2="-1" k3="1"/>
<feColorMatrix type="matrix" values="0 0 0 0 1 0 0 0 0 0.935417 0 0 0 0 0.354167 0 0 0 1 0"/>
<feBlend mode="normal" in2="shape" result="effect2_innerShadow_2_242"/>
</filter>
</defs>
</svg>
