<svg xmlns="http://www.w3.org/2000/svg" xmlns:xlink="http://www.w3.org/1999/xlink" width="1080" zoomAndPan="magnify" viewBox="0 0 810 374.999991" height="500" preserveAspectRatio="xMidYMid meet" version="1.0"><defs><g/><clipPath id="ba5ad41ea0"><path d="M 29.859375 32.832031 L 338.679688 32.832031 L 338.679688 341.652344 L 29.859375 341.652344 Z M 29.859375 32.832031 " clip-rule="nonzero"/></clipPath><clipPath id="dc0233ddaa"><path d="M 114.023438 157.355469 L 140.746094 157.355469 L 140.746094 259.800781 L 114.023438 259.800781 Z M 114.023438 157.355469 " clip-rule="nonzero"/></clipPath><clipPath id="36819bc880"><path d="M 171.265625 115.582031 L 200.960938 115.582031 L 200.960938 259.601562 L 171.265625 259.601562 Z M 171.265625 115.582031 " clip-rule="nonzero"/></clipPath><clipPath id="1c3cc4beac"><path d="M 228.554688 157.355469 L 255.28125 157.355469 L 255.28125 259.800781 L 228.554688 259.800781 Z M 228.554688 157.355469 " clip-rule="nonzero"/></clipPath><clipPath id="6ee0e28158"><path d="M 114.023438 115.582031 L 140.746094 115.582031 L 140.746094 142.308594 L 114.023438 142.308594 Z M 114.023438 115.582031 " clip-rule="nonzero"/></clipPath><clipPath id="511d115bc6"><path d="M 228.554688 117.699219 L 255.28125 117.699219 L 255.28125 144.421875 L 228.554688 144.421875 Z M 228.554688 117.699219 " clip-rule="nonzero"/></clipPath><clipPath id="db50100ef5"><path d="M 755.335938 109.839844 L 780.574219 109.839844 L 780.574219 135.078125 L 755.335938 135.078125 Z M 755.335938 109.839844 " clip-rule="nonzero"/></clipPath></defs><rect x="-81" width="972" fill="#ffffff" y="-37.499999" height="449.999989" fill-opacity="1"/><rect x="-81" width="972" fill="#ffffff" y="-37.499999" height="449.999989" fill-opacity="1"/><rect x="-81" width="972" fill="#ffffff" y="-37.499999" height="449.999989" fill-opacity="1"/><g clip-path="url(#ba5ad41ea0)"><path fill="#004aad" d="M 184.269531 32.832031 C 98.988281 32.832031 29.859375 101.964844 29.859375 187.242188 C 29.859375 272.523438 98.988281 341.652344 184.269531 341.652344 C 269.546875 341.652344 338.679688 272.523438 338.679688 187.242188 C 338.679688 101.964844 269.546875 32.832031 184.269531 32.832031 " fill-opacity="1" fill-rule="nonzero"/></g><g clip-path="url(#dc0233ddaa)"><path fill="#ffffff" d="M 114.023438 157.355469 L 140.746094 157.355469 L 140.746094 259.800781 L 114.023438 259.800781 L 114.023438 157.355469 " fill-opacity="1" fill-rule="nonzero"/></g><g clip-path="url(#36819bc880)"><path fill="#ffffff" d="M 171.265625 115.605469 L 200.960938 115.605469 L 200.960938 259.578125 L 171.265625 259.578125 L 171.265625 115.605469 " fill-opacity="1" fill-rule="nonzero"/></g><g clip-path="url(#1c3cc4beac)"><path fill="#ffffff" d="M 228.558594 157.355469 L 255.28125 157.355469 L 255.28125 259.800781 L 228.558594 259.800781 L 228.558594 157.355469 " fill-opacity="1" fill-rule="nonzero"/></g><g clip-path="url(#6ee0e28158)"><path fill="#ffffff" d="M 127.386719 115.582031 C 120.003906 115.582031 114.023438 121.566406 114.023438 128.945312 C 114.023438 136.324219 120.003906 142.308594 127.386719 142.308594 C 134.765625 142.308594 140.746094 136.324219 140.746094 128.945312 C 140.746094 121.566406 134.765625 115.582031 127.386719 115.582031 " fill-opacity="1" fill-rule="nonzero"/></g><g clip-path="url(#511d115bc6)"><path fill="#ffffff" d="M 241.917969 117.699219 C 234.539062 117.699219 228.554688 123.679688 228.554688 131.058594 C 228.554688 138.441406 234.539062 144.421875 241.917969 144.421875 C 249.296875 144.421875 255.28125 138.441406 255.28125 131.058594 C 255.28125 123.679688 249.296875 117.699219 241.917969 117.699219 " fill-opacity="1" fill-rule="nonzero"/></g><g clip-path="url(#db50100ef5)"><path fill="#004aad" d="M 767.957031 111.324219 C 761.816406 111.324219 756.820312 116.316406 756.820312 122.460938 C 756.820312 128.597656 761.816406 133.59375 767.957031 133.59375 C 774.097656 133.59375 779.09375 128.597656 779.09375 122.460938 C 779.09375 116.316406 774.097656 111.324219 767.957031 111.324219 Z M 767.957031 135.078125 C 766.253906 135.078125 764.601562 134.746094 763.042969 134.085938 C 761.539062 133.453125 760.191406 132.542969 759.03125 131.382812 C 757.875 130.222656 756.964844 128.875 756.328125 127.371094 C 755.667969 125.816406 755.335938 124.164062 755.335938 122.460938 C 755.335938 120.753906 755.667969 119.101562 756.328125 117.546875 C 756.964844 116.042969 757.875 114.695312 759.03125 113.535156 C 760.191406 112.375 761.539062 111.464844 763.042969 110.832031 C 764.601562 110.171875 766.253906 109.839844 767.957031 109.839844 C 769.660156 109.839844 771.3125 110.171875 772.867188 110.832031 C 774.371094 111.464844 775.722656 112.375 776.878906 113.535156 C 778.039062 114.695312 778.949219 116.042969 779.585938 117.546875 C 780.242188 119.101562 780.578125 120.753906 780.578125 122.460938 C 780.578125 124.164062 780.242188 125.816406 779.585938 127.371094 C 778.949219 128.875 778.039062 130.222656 776.878906 131.382812 C 775.722656 132.542969 774.371094 133.453125 772.867188 134.085938 C 771.3125 134.746094 769.660156 135.078125 767.957031 135.078125 " fill-opacity="1" fill-rule="nonzero"/></g><path fill="#004aad" d="M 759.5 119.777344 L 762.140625 119.777344 L 762.140625 126.695312 L 763.9375 126.695312 L 763.9375 119.777344 L 766.570312 119.777344 L 766.570312 118.222656 L 759.5 118.222656 L 759.5 119.777344 " fill-opacity="1" fill-rule="nonzero"/><path fill="#004aad" d="M 773.75 118.222656 L 772.304688 122.230469 C 772.097656 122.804688 771.917969 123.351562 771.761719 123.871094 C 771.589844 123.289062 771.40625 122.730469 771.21875 122.210938 L 769.773438 118.222656 L 767.429688 118.222656 L 767.429688 126.695312 L 769.226562 126.695312 L 769.226562 122.398438 C 769.226562 122.035156 769.21875 121.652344 769.203125 121.253906 C 769.28125 121.496094 769.367188 121.742188 769.453125 121.980469 L 771.179688 126.695312 L 772.355469 126.695312 L 774.082031 121.980469 C 774.167969 121.738281 774.253906 121.496094 774.335938 121.25 C 774.320312 121.667969 774.308594 122.054688 774.308594 122.402344 L 774.308594 126.695312 L 776.105469 126.695312 L 776.105469 118.222656 L 773.75 118.222656 " fill-opacity="1" fill-rule="nonzero"/><g fill="#004aad" fill-opacity="1"><g transform="translate(358.140308, 267.036137)"><g><path d="M 49.46875 0 L 18.609375 0 L 18.609375 -147.875 L 103.375 -147.875 L 103.375 -122.1875 L 49.46875 -122.1875 L 49.46875 -84.0625 L 99.640625 -84.0625 L 99.640625 -58.46875 L 49.46875 -58.46875 Z M 49.46875 0 "/></g></g></g><g fill="#004aad" fill-opacity="1"><g transform="translate(473.896555, 267.036137)"><g><path d="M 14.875 -142.3125 C 14.875 -152.363281 20.46875 -157.390625 31.65625 -157.390625 C 42.851562 -157.390625 48.453125 -152.363281 48.453125 -142.3125 C 48.453125 -137.53125 47.050781 -133.804688 44.25 -131.140625 C 41.457031 -128.472656 37.257812 -127.140625 31.65625 -127.140625 C 20.46875 -127.140625 14.875 -132.195312 14.875 -142.3125 Z M 47.03125 0 L 16.1875 0 L 16.1875 -113.09375 L 47.03125 -113.09375 Z M 47.03125 0 "/></g></g></g><g fill="#004aad" fill-opacity="1"><g transform="translate(539.182548, 267.036137)"><g><path d="M 47.03125 0 L 16.1875 0 L 16.1875 -157.390625 L 47.03125 -157.390625 Z M 47.03125 0 "/></g></g></g><g fill="#004aad" fill-opacity="1"><g transform="translate(604.468542, 267.036137)"><g><path d="M 14.875 -142.3125 C 14.875 -152.363281 20.46875 -157.390625 31.65625 -157.390625 C 42.851562 -157.390625 48.453125 -152.363281 48.453125 -142.3125 C 48.453125 -137.53125 47.050781 -133.804688 44.25 -131.140625 C 41.457031 -128.472656 37.257812 -127.140625 31.65625 -127.140625 C 20.46875 -127.140625 14.875 -132.195312 14.875 -142.3125 Z M 47.03125 0 L 16.1875 0 L 16.1875 -113.09375 L 47.03125 -113.09375 Z M 47.03125 0 "/></g></g></g><g fill="#004aad" fill-opacity="1"><g transform="translate(669.754536, 267.036137)"><g><path d="M 63.828125 -22.5625 C 69.222656 -22.5625 75.695312 -23.738281 83.25 -26.09375 L 83.25 -3.140625 C 75.5625 0.296875 66.117188 2.015625 54.921875 2.015625 C 42.585938 2.015625 33.601562 -1.097656 27.96875 -7.328125 C 22.332031 -13.566406 19.515625 -22.925781 19.515625 -35.40625 L 19.515625 -89.921875 L 4.75 -89.921875 L 4.75 -102.96875 L 21.75 -113.28125 L 30.65625 -137.15625 L 50.375 -137.15625 L 50.375 -113.09375 L 82.03125 -113.09375 L 82.03125 -89.921875 L 50.375 -89.921875 L 50.375 -35.40625 C 50.375 -31.019531 51.601562 -27.78125 54.0625 -25.6875 C 56.519531 -23.601562 59.773438 -22.5625 63.828125 -22.5625 Z M 63.828125 -22.5625 "/></g></g></g><g fill="#004aad" fill-opacity="1"><g transform="translate(565.377469, 310.508518)"><g/></g></g></svg>