<svg xmlns="http://www.w3.org/2000/svg" xmlns:xlink="http://www.w3.org/1999/xlink" zoomAndPan="magnify" preserveAspectRatio="xMidYMid meet" version="1.0" viewBox="162.29 162.29 484.62 484.62"><defs><clipPath id="id1"><path d="M 162.289062 162.289062 L 646.910156 162.289062 L 646.910156 646.910156 L 162.289062 646.910156 Z M 162.289062 162.289062 " clip-rule="nonzero"/></clipPath><clipPath id="id2"><path d="M 294.363281 357.695312 L 336.300781 357.695312 L 336.300781 518.460938 L 294.363281 518.460938 Z M 294.363281 357.695312 " clip-rule="nonzero"/></clipPath><clipPath id="id3"><path d="M 384.195312 292.144531 L 430.792969 292.144531 L 430.792969 518.144531 L 384.195312 518.144531 Z M 384.195312 292.144531 " clip-rule="nonzero"/></clipPath><clipPath id="id4"><path d="M 474.097656 357.695312 L 516.035156 357.695312 L 516.035156 518.460938 L 474.097656 518.460938 Z M 474.097656 357.695312 " clip-rule="nonzero"/></clipPath><clipPath id="id5"><path d="M 294.363281 292.144531 L 336.300781 292.144531 L 336.300781 334.082031 L 294.363281 334.082031 Z M 294.363281 292.144531 " clip-rule="nonzero"/></clipPath><clipPath id="id6"><path d="M 474.097656 295.460938 L 516.035156 295.460938 L 516.035156 337.398438 L 474.097656 337.398438 Z M 474.097656 295.460938 " clip-rule="nonzero"/></clipPath></defs><g clip-path="url(#id1)"><path fill="#004aad" d="M 404.597656 162.289062 C 270.773438 162.289062 162.289062 270.773438 162.289062 404.597656 C 162.289062 538.421875 270.773438 646.910156 404.597656 646.910156 C 538.421875 646.910156 646.910156 538.421875 646.910156 404.597656 C 646.910156 270.773438 538.421875 162.289062 404.597656 162.289062 " fill-opacity="1" fill-rule="nonzero"/></g><g clip-path="url(#id2)"><path fill="#ffffff" d="M 294.367188 357.695312 L 336.300781 357.695312 L 336.300781 518.460938 L 294.367188 518.460938 L 294.367188 357.695312 " fill-opacity="1" fill-rule="nonzero"/></g><g clip-path="url(#id3)"><path fill="#ffffff" d="M 384.195312 292.179688 L 430.792969 292.179688 L 430.792969 518.109375 L 384.195312 518.109375 L 384.195312 292.179688 " fill-opacity="1" fill-rule="nonzero"/></g><g clip-path="url(#id4)"><path fill="#ffffff" d="M 474.097656 357.695312 L 516.035156 357.695312 L 516.035156 518.460938 L 474.097656 518.460938 L 474.097656 357.695312 " fill-opacity="1" fill-rule="nonzero"/></g><g clip-path="url(#id5)"><path fill="#ffffff" d="M 315.332031 292.144531 C 303.753906 292.144531 294.363281 301.53125 294.363281 313.113281 C 294.363281 324.691406 303.753906 334.082031 315.332031 334.082031 C 326.914062 334.082031 336.300781 324.691406 336.300781 313.113281 C 336.300781 301.53125 326.914062 292.144531 315.332031 292.144531 " fill-opacity="1" fill-rule="nonzero"/></g><g clip-path="url(#id6)"><path fill="#ffffff" d="M 495.066406 295.460938 C 483.484375 295.460938 474.097656 304.847656 474.097656 316.429688 C 474.097656 328.011719 483.484375 337.398438 495.066406 337.398438 C 506.648438 337.398438 516.035156 328.011719 516.035156 316.429688 C 516.035156 304.847656 506.648438 295.460938 495.066406 295.460938 " fill-opacity="1" fill-rule="nonzero"/></g></svg>