<svg width="27" height="27" viewBox="0 0 27 27" fill="none" xmlns="http://www.w3.org/2000/svg">
<g clip-path="url(#clip0_394_55)">
<path d="M12.5279 24.2156C10.3869 21.5354 5.625 15.0394 5.625 11.3906C5.625 6.96366 9.1507 3.375 13.5 3.375C17.8477 3.375 21.375 6.96366 21.375 11.3906C21.375 15.0394 16.5762 21.5354 14.4721 24.2156C13.9676 24.8544 13.0324 24.8544 12.5279 24.2156ZM13.5 14.0625C14.9479 14.0625 16.125 12.8643 16.125 11.3906C16.125 9.91692 14.9479 8.71875 13.5 8.71875C12.0521 8.71875 10.875 9.91692 10.875 11.3906C10.875 12.8643 12.0521 14.0625 13.5 14.0625Z" fill="black"/>
</g>
<defs>
<clipPath id="clip0_394_55">
<rect width="15.75" height="21.375" fill="white" transform="translate(5.625 3.375)"/>
</clipPath>
</defs>
</svg>
